<svg id="Слой_1" data-name="Слой 1" xmlns="http://www.w3.org/2000/svg" viewBox="0 0 88.57 84.95"><defs><style>.cls-1{fill:#fff;}</style></defs><path class="cls-1" d="M320.69,390.69l-26.19-8.07a7.17,7.17,0,0,0-9,4.74l-16.25,52.72a7.17,7.17,0,0,0,4.74,9l26.19,8.07a7.17,7.17,0,0,0,9-4.74l16.25-52.72A7.17,7.17,0,0,0,320.69,390.69Zm-14.38,60.8a4.17,4.17,0,0,1-5.21,2.76l-26.19-8.07a4.18,4.18,0,0,1-2.75-5.22l16.24-52.72a4.19,4.19,0,0,1,5.22-2.76l26.18,8.07a4.18,4.18,0,0,1,2.76,5.22Z" transform="translate(-253.79 -378.32)"/><path class="cls-1" d="M293.45,444.7l-6.83-2.11a1.5,1.5,0,1,0-.89,2.87l6.84,2.1a1.5,1.5,0,1,0,.88-2.86Z" transform="translate(-253.79 -378.32)"/><path class="cls-1" d="M316,393.24a1.5,1.5,0,0,0-1.88,1l-1,3.19a2.71,2.71,0,0,1-.55.1l-15.26-4.7c-.09,0-.34-.11-.28-.58l.92-3a1.5,1.5,0,0,0-2.86-.88l-.95,3.07,0,.13a3.46,3.46,0,0,0,2.32,4.12l15.74,4.85h.24c.68,0,2.94-.18,3.48-1.93l1.08-3.5A1.5,1.5,0,0,0,316,393.24Z" transform="translate(-253.79 -378.32)"/><path class="cls-1" d="M272.74,453.87c-4.36-1.89-7.17-4.47-8.37-7.66a12.12,12.12,0,0,1,.31-8.58,1.5,1.5,0,0,0-.7-2,1.51,1.51,0,0,0-2,.7,14.94,14.94,0,0,0-.44,10.89c1.49,4,4.86,7.17,10,9.4l.15.06a1.5,1.5,0,0,0,1-2.81Z" transform="translate(-253.79 -378.32)"/><path class="cls-1" d="M270.13,460.36c-18.29-6.75-12.65-25-12.4-25.8a1.51,1.51,0,0,0-1-1.89,1.52,1.52,0,0,0-1.89,1c-.07.22-6.82,21.78,14.21,29.55l.08,0a1.5,1.5,0,0,0,1-2.84Z" transform="translate(-253.79 -378.32)"/><path class="cls-1" d="M324.6,385a1.5,1.5,0,0,0-1.19,2.76c4.35,1.88,7.17,4.46,8.37,7.66a12.09,12.09,0,0,1-.31,8.57,1.5,1.5,0,0,0,.7,2l.21.08a1.49,1.49,0,0,0,1.79-.78,15,15,0,0,0,.44-10.89C333.12,390.37,329.75,387.2,324.6,385Z" transform="translate(-253.79 -378.32)"/><path class="cls-1" d="M327.06,378.42a1.5,1.5,0,1,0-1,2.81c18.29,6.75,12.65,25,12.4,25.8a1.49,1.49,0,0,0,1,1.89h0a1.5,1.5,0,0,0,1.87-1C341.34,407.75,348.09,386.18,327.06,378.42Z" transform="translate(-253.79 -378.32)"/></svg>