<svg id="Слой_1" data-name="Слой 1" xmlns="http://www.w3.org/2000/svg" viewBox="0 0 98.47 94.45"><defs><style>.cls-1{fill:#fff;}</style></defs><path class="cls-1" d="M267.66,397.29l18.07,58.62a8,8,0,0,0,10,5.27l29.12-9a8,8,0,0,0,5.27-10L312,383.62a8,8,0,0,0-10-5.27l-29.12,9A8,8,0,0,0,267.66,397.29Zm3.19-1a4.64,4.64,0,0,1,3.07-5.8l29.11-9a4.64,4.64,0,0,1,5.8,3.06l18.06,58.62a4.65,4.65,0,0,1-3.06,5.8l-29.12,9a4.65,4.65,0,0,1-5.8-3.07Z" transform="translate(-248.84 -373.57)"/><path class="cls-1" d="M303.22,447.37l7.6-2.34a1.67,1.67,0,0,1,1,3.19l-7.6,2.34a1.67,1.67,0,0,1-1-3.19Z" transform="translate(-248.84 -373.57)"/><path class="cls-1" d="M278.17,390.16a1.67,1.67,0,0,1,2.09,1.1l1.09,3.55a3.22,3.22,0,0,0,.6.11l17-5.22c.11,0,.39-.12.31-.65l-1-3.32a1.67,1.67,0,1,1,3.19-1l1.05,3.42,0,.14a3.86,3.86,0,0,1-2.59,4.58l-17.5,5.4h-.26c-.76,0-3.27-.19-3.87-2.14l-1.2-3.89A1.66,1.66,0,0,1,278.17,390.16Z" transform="translate(-248.84 -373.57)"/><path class="cls-1" d="M326.24,457.57c4.85-2.1,8-5,9.31-8.52a13.4,13.4,0,0,0-.35-9.53,1.67,1.67,0,0,1,3-1.45,16.63,16.63,0,0,1,.48,12.1c-1.65,4.46-5.4,8-11.12,10.46l-.17.06a1.67,1.67,0,0,1-1.16-3.12Z" transform="translate(-248.84 -373.57)"/><path class="cls-1" d="M329.15,464.79c20.33-7.51,14.06-27.82,13.78-28.69A1.67,1.67,0,0,1,344,434a1.69,1.69,0,0,1,2.1,1.07c.08.24,7.58,24.21-15.8,32.85l-.09,0a1.67,1.67,0,0,1-1.06-3.16Z" transform="translate(-248.84 -373.57)"/><path class="cls-1" d="M268.58,381a1.67,1.67,0,0,1,1.33,3.06c-4.85,2.1-8,5-9.31,8.52a13.36,13.36,0,0,0,.35,9.53,1.67,1.67,0,0,1-.78,2.22l-.24.09a1.66,1.66,0,0,1-2-.86,16.66,16.66,0,0,1-.48-12.11C259.11,387,262.85,383.45,268.58,381Z" transform="translate(-248.84 -373.57)"/><path class="cls-1" d="M265.85,373.68a1.67,1.67,0,1,1,1.15,3.13c-20.33,7.51-14.06,27.81-13.78,28.69a1.68,1.68,0,0,1-1.07,2.1h0a1.66,1.66,0,0,1-2.07-1.08C250,406.29,242.47,382.31,265.85,373.68Z" transform="translate(-248.84 -373.57)"/></svg>