<svg id="Слой_1" data-name="Слой 1" xmlns="http://www.w3.org/2000/svg" viewBox="0 0 13.84 13.51"><defs><style>.cls-1{fill:#d8251d;}</style></defs><path class="cls-1" d="M305,424.27a3,3,0,0,0-4.74-1.94.59.59,0,0,0-.19.22.75.75,0,0,0,.17.9.74.74,0,0,0,.93,0,1.52,1.52,0,0,1,2.18,2,1.46,1.46,0,0,1-2.25.18q-3.65-3.49-7.28-7c-.24-.23-.5-.45-.72-.7a1.39,1.39,0,0,1-.26-1.58,1.48,1.48,0,0,1,2.63-.15,1.45,1.45,0,0,1,0,1.54.74.74,0,0,0,.21,1.06.76.76,0,0,0,1.07-.3,3.21,3.21,0,0,0,.43-1.51c0-.22,0-.44-.09-.65a2.92,2.92,0,0,0-3.5-2.25,2.93,2.93,0,0,0-1.49,4.95l.49.47,7.53,7.19a2.9,2.9,0,0,0,2.67.77A2.85,2.85,0,0,0,305,424.27Z" transform="translate(-291.14 -414.09)"/><path class="cls-1" d="M300.33,419l1.23-1.28a.74.74,0,0,0,.08-.13l0,0a1.65,1.65,0,0,1,0,.32.75.75,0,1,0,1.49-.13c-.06-.61-.12-1.21-.17-1.81,0-.27,0-.58-.31-.72a2.4,2.4,0,0,0-.38-.12c-.13,0-.27,0-.4,0-.56,0-1.12-.09-1.67-.11a.73.73,0,0,0-.74.62.72.72,0,0,0,.54.83,2.57,2.57,0,0,0,.5.05l-.13.15L299.23,418a.76.76,0,0,0,0,1.14A.74.74,0,0,0,300.33,419Z" transform="translate(-291.14 -414.09)"/></svg>