<svg id="Слой_1" data-name="Слой 1" xmlns="http://www.w3.org/2000/svg" viewBox="0 0 26.98 26.98"><defs><style>.cls-1{fill:#1a55a3;}.cls-2{fill:#fff;}</style></defs><rect class="cls-1" width="26.98" height="26.98"/><path class="cls-2" d="M293.26,420.78v-5.3a1.61,1.61,0,0,1,1.67-1.68h6.32a1.61,1.61,0,0,1,1.64,1.65v10.67a1.6,1.6,0,0,1-1.62,1.63h-6.39a1.6,1.6,0,0,1-1.62-1.63Zm3.2-5.9H295a.54.54,0,0,0-.62.62v10.56a.55.55,0,0,0,.62.62h6.22c.46,0,.65-.2.65-.65v-10c0-.22,0-.45,0-.67a.5.5,0,0,0-.46-.51c-.55,0-1.11,0-1.67,0a.31.31,0,0,0,0,.09,1.07,1.07,0,0,1-1.1,1h-1a1.09,1.09,0,0,1-.67-.23A1.15,1.15,0,0,1,296.46,414.88Z" transform="translate(-284.59 -407.29)"/></svg>