<svg id="Слой_1" data-name="Слой 1" xmlns="http://www.w3.org/2000/svg" viewBox="0 0 26.98 26.98"><defs><style>.cls-1{fill:#1a55a3;}.cls-2{fill:#fff;}</style></defs><rect class="cls-1" width="26.98" height="26.98"/><path class="cls-2" d="M298.07,425h-4.44a1,1,0,0,1-1.06-1v-6.41a1,1,0,0,1,1.05-1.05h8.92a1,1,0,0,1,1,1q0,3.22,0,6.45a1,1,0,0,1-1,1Zm4.49-6.57-.1.08-2.68,2.27-1.35,1.13a.47.47,0,0,1-.55.1,1.2,1.2,0,0,1-.27-.19l-3.92-3.31-.1-.08V424h9Zm-.47-.93h-8l4,3.39Z" transform="translate(-284.59 -407.29)"/></svg>