<svg width="27" height="27" id="Слой_1" data-name="Слой 1" xmlns="http://www.w3.org/2000/svg" viewBox="0 0 26.98 26.98"><defs><style>.cls-1{fill:#1a55a3;}.cls-2{fill:#fff;}</style></defs><rect class="cls-1" width="26.98" height="26.98"/><path class="cls-2" d="M298.35,415.3c.25,0,.51.07.75.13a4.06,4.06,0,0,1,3,3.27,4.55,4.55,0,0,1-.29,2.42,12.16,12.16,0,0,1-1.58,2.78,20.7,20.7,0,0,1-1.81,2.16.45.45,0,0,1-.62.12.73.73,0,0,1-.09-.08,18.06,18.06,0,0,1-3.05-4.11,6.48,6.48,0,0,1-.67-1.94,4,4,0,0,1,1-3.44,4,4,0,0,1,2.67-1.3h.63Zm-2.1,4.1a1.83,1.83,0,1,0,1.85-1.82A1.82,1.82,0,0,0,296.25,419.4Z" transform="translate(-284.59 -407.29)"/></svg>