<svg id="Слой_1" data-name="Слой 1" xmlns="http://www.w3.org/2000/svg" viewBox="0 0 11 15.92"><defs><style>.cls-1{fill:#1a56a3;}</style></defs><path class="cls-1" d="M292.58,420.78v-6a1.83,1.83,0,0,1,1.91-1.91h7.21a1.82,1.82,0,0,1,1.87,1.87q0,6.09,0,12.19a1.84,1.84,0,0,1-1.85,1.86h-7.29a1.81,1.81,0,0,1-1.85-1.85C292.57,424.84,292.58,422.81,292.58,420.78Zm3.65-6.74h-1.72a.62.62,0,0,0-.71.71v12.06a.62.62,0,0,0,.7.7h7.11c.52,0,.74-.22.74-.74V415.41c0-.26,0-.51,0-.77a.58.58,0,0,0-.52-.59c-.64,0-1.27,0-1.91,0a.38.38,0,0,0,0,.1,1.23,1.23,0,0,1-1.26,1.11h-1.19a1.2,1.2,0,0,1-.75-.26A1.27,1.27,0,0,1,296.23,414Z" transform="translate(-292.58 -412.82)"/></svg>