<svg id="Слой_1" data-name="Слой 1" xmlns="http://www.w3.org/2000/svg" viewBox="0 0 11.46 14.83"><defs><style>.cls-1{fill:#1a56a3;}</style></defs><path class="cls-1" d="M303.67,418a5.78,5.78,0,0,0-5.6-4.6v-.05c-.49.09-1,.13-1.48.26a5.65,5.65,0,0,0-3.8,3.42,5.33,5.33,0,0,0-.3,3.37,9.74,9.74,0,0,0,1.18,2.66,30.33,30.33,0,0,0,3.73,4.79.86.86,0,0,0,1.37,0c.75-.87,1.51-1.73,2.22-2.62a16.22,16.22,0,0,0,2.25-3.58A5.64,5.64,0,0,0,303.67,418Zm-1.39,3.19a14.21,14.21,0,0,1-1.85,3c-.73.92-1.5,1.81-2.26,2.71l-.1.13-1.35-1.57a21.77,21.77,0,0,1-2.38-3.34,7.24,7.24,0,0,1-.85-2.08,4.5,4.5,0,0,1,.71-3.49,4.39,4.39,0,0,1,3.21-2.07,4.44,4.44,0,0,1,4.27,1.71,4.7,4.7,0,0,1,1.08,3.05A4.77,4.77,0,0,1,302.28,421.14Z" transform="translate(-292.33 -413.3)"/><path class="cls-1" d="M298.13,416.13a3,3,0,1,0,2.9,3A3,3,0,0,0,298.13,416.13ZM298,421a1.91,1.91,0,1,1,1.94-1.91A1.9,1.9,0,0,1,298,421Z" transform="translate(-292.33 -413.3)"/></svg>