<svg width="51" height="46" id="Слой_1" data-name="Слой 1" xmlns="http://www.w3.org/2000/svg" viewBox="0 0 50.77 46.29"><defs><style>.cls-1{fill:#fff;}</style></defs><path class="cls-1" d="M318.78,441.94,322.55,421H296.22v-4.87h3.11v-4.23l-.06-.16A3.37,3.37,0,0,0,298,410.1v-4l0-.22a9.85,9.85,0,0,0-9.36-7.17,1.75,1.75,0,0,0-.38-.48,4.6,4.6,0,0,0-4.51,0,1.75,1.75,0,0,0-.38.48,9.85,9.85,0,0,0-9.35,7.17l0,4.21a3.42,3.42,0,0,0-1.26,1.65l-.05.16v4.23h3.1V422c0,6.58,7.74,8.65,8.07,8.73l.5-1.94c-.07,0-6.57-1.77-6.57-6.79v-5.87h16.43V421h-5.28l-4.1,20.93H273.69v2h49.77v-2Zm-33.09-27.8h-11v-1.87c.12-.26.31-.48.39-.49a17.28,17.28,0,0,1,2.12,0l.12-2s-.65,0-1.33,0v-3.52a7.73,7.73,0,0,1,7.12-5.51v2h2v-3a2.21,2.21,0,0,1,.72-.09v0l.16,0,.18,0v0a2.28,2.28,0,0,1,.73.09v3h2v-2a7.7,7.7,0,0,1,7.11,5.51v3.52c-.68,0-1.28,0-1.32,0l.12,2a18.34,18.34,0,0,1,2.11,0c.09,0,.28.23.4.49v1.87H285.69Zm4.9,8.87h29.57l-3.42,18.93H286.88Z" transform="translate(-272.69 -397.64)"/><polygon class="cls-1" points="13 12.14 8.76 12.14 8.76 14.14 13 14.14 13.64 14.14 17.88 14.14 17.88 12.14 13.64 12.14 13 12.14"/><rect class="cls-1" x="26.74" y="34.12" width="8.31" height="2"/></svg>