<svg width="41" height="47" id="Слой_1" data-name="Слой 1" xmlns="http://www.w3.org/2000/svg" viewBox="0 0 39.71 46.89"><defs><style>.cls-1{fill:#fff;}</style></defs><path class="cls-1" d="M298,433h.09c2.72-.23,7.88-2.11,7.88-7.61h-2c0,4.68-5,5.49-5.93,5.6-.88-.11-5.92-.92-5.92-5.6h-2C290.15,430.89,295.3,432.77,298,433Z" transform="translate(-278.22 -397.33)"/><path class="cls-1" d="M315.48,421.44v-5.87c0-.12-.22-12-11.27-14.71v-.95c0-1.64-1.91-2.43-2.13-2.51l-.17-.07h-7.67l-.17.07c-.22.08-2.14.87-2.14,2.51v.95c-11,2.69-11.26,14.59-11.26,14.72v5.86h-2.45v2h39.71v-2Zm-2,0H282.67v-5.85c0-.43.22-10.13,9.26-12.67v1.56h2v-4.57a1.6,1.6,0,0,1,.71-.58h6.87c.34.17.69.45.7.58v4.57h2v-1.56c9.05,2.54,9.27,12.24,9.27,12.66Z" transform="translate(-278.22 -397.33)"/><path class="cls-1" d="M314.77,427.51a2.17,2.17,0,0,1-1.17.42,5.33,5.33,0,0,0-3.55.9,2,2,0,0,0-.77,1.39c-.12,1.53,1.54,3.74,2,4.19a9.8,9.8,0,0,1,.69.83c0,.14-.05.27-.07.37-.44.45-2,1.84-3.44,3.1a3.09,3.09,0,0,1-1.12,0,12.17,12.17,0,0,0-2-1.81l-.26-.2h-.33c-1.15,0-2.63.17-3.19,1a8.84,8.84,0,0,0-.74,3.38c-.12.28-.55,1.17-1.35,1.17l-1.31,1.92h0l1.31-1.92h-2.71c-.8,0-1.23-.89-1.35-1.17a8.84,8.84,0,0,0-.74-3.38c-.56-.81-2-1-3.19-1h-.33l-.26.2a12.17,12.17,0,0,0-2,1.81,3.13,3.13,0,0,1-1.13,0c-1.44-1.26-3-2.65-3.43-3.1,0-.1-.05-.23-.07-.37a9.8,9.8,0,0,1,.69-.83c.46-.46,2.12-2.67,2-4.19a2,2,0,0,0-.77-1.39,5.33,5.33,0,0,0-3.55-.9,2.15,2.15,0,0,1-1.17-.42v-2.58h-2v3.54l.35.3a4.56,4.56,0,0,0,3,1.15,3.52,3.52,0,0,1,2.09.45,6.22,6.22,0,0,1-1.41,2.63,11.42,11.42,0,0,0-1.15,1.42l-.23.33.06.39a10.14,10.14,0,0,0,.24,1.25c.1.29.17.51,4.2,4l.2.18.26.05c.74.15,2.54.38,3.33-.67a9.41,9.41,0,0,1,1.39-1.26,6,6,0,0,1,1.25.18,14.72,14.72,0,0,1,.38,2.47l.05.22a3.62,3.62,0,0,0,3.28,2.65h1.34l.05-.08h0l-.05.08h1.37a3.63,3.63,0,0,0,3.28-2.65l.05-.22a14.61,14.61,0,0,1,.37-2.46,5.33,5.33,0,0,1,1.26-.19,9.41,9.41,0,0,1,1.39,1.26c.8,1.05,2.59.82,3.33.67l.26-.05.2-.18c4-3.5,4.1-3.72,4.2-4a9.8,9.8,0,0,0,.24-1.25l.06-.39-.23-.33a11.42,11.42,0,0,0-1.15-1.42,6.61,6.61,0,0,1-1.43-2.56,3.13,3.13,0,0,1,2.11-.52,4.64,4.64,0,0,0,3.05-1.15l.35-.3v-3.54h-2Z" transform="translate(-278.22 -397.33)"/><polygon class="cls-1" points="19.84 19.04 11.35 19.04 11.35 21.04 19.84 21.04 19.87 21.04 28.36 21.04 28.36 19.04 19.87 19.04 19.84 19.04"/></svg>