<svg width="42" height="44" id="Слой_1" data-name="Слой 1" xmlns="http://www.w3.org/2000/svg" viewBox="0 0 42.79 44.07"><defs><style>.cls-1{fill:#fff;}</style></defs><path class="cls-1" d="M295.82,434.74l-.2.75c-.37,1.38-1.86,5.32-3.87,5.32a3.92,3.92,0,0,1-3.41-2.52v-34.6a5.33,5.33,0,0,0-1.11-2.95h20.48c3.26,0,3.76,1.67,3.82,2v29.52h2V402.54c-.15-1.31-1.56-3.8-5.82-3.8h-25a5.73,5.73,0,0,0-5.9,5.23l-.11,1.1h7.09v-2h-4.7a3.59,3.59,0,0,1,3.62-2.33c3.39,0,3.64,2.73,3.65,3v34.92l.06.16c.06.17,1.44,4,5.35,4,3.25,0,5-4.25,5.58-6.07h19.82c-.38,1.52-1.35,4.07-3.62,4.07H298.07v2h15.46c5,0,5.78-6.68,5.82-7l.12-1.11Z" transform="translate(-276.68 -398.74)"/><path class="cls-1" d="M308.54,420.52h-3.21l-2.21-6.84c.36-.89,1-3.05.05-4.63a3.69,3.69,0,0,0-3.34-1.58l0,1v-1a3.72,3.72,0,0,0-3.35,1.58c-1,1.58-.3,3.74.05,4.63l-2.2,6.84h-3.22v2h2.58l-1.53,4.77,1.9.61,1.73-5.38h3.05v1h2v-1h3.06l1.73,5.38,1.9-.61L306,422.52h2.57Zm-7.73,0v-1h-2v1H296.4l2.24-7-.17-.35c-.32-.67-.81-2.3-.32-3.1.25-.4.81-.61,1.66-.63s1.41.23,1.66.63c.53.85-.07,2.57-.32,3.1l-.17.35,2.24,7Z" transform="translate(-276.68 -398.74)"/></svg>