<svg width="30" height="30" id="Слой_1" data-name="Слой 1" xmlns="http://www.w3.org/2000/svg" viewBox="0 0 30.08 30.32"><defs><style>.cls-1{fill:#fff;}</style></defs><path class="cls-1" d="M297.79,411c.28.6.56,1.19.85,1.79.21.43.43.87.65,1.3a.64.64,0,0,1-.13.82c-.37.36-.74.73-1.13,1.13l1.14,1.14.8.8a.58.58,0,0,1,0,.92l-.32.33.78.78c.36-.25.67-.89,1.2-.34s-.1.82-.38,1.18l.8.79.38-.38a.56.56,0,0,1,.81,0,.54.54,0,0,1,0,.79l-.39.39.79.8c.35-.28.66-.87,1.18-.37s-.07.83-.34,1.2l.76.76c.36-.26.7-.88,1.22-.31s-.09.82-.37,1.17l.75.75c.76-.58.95-.63,1.24-.33s.21.51-.37,1.19l.75.75c.36-.25.68-.87,1.21-.33s-.08.83-.36,1.19l.76.76c.38-.26.66-.86,1.23-.34.28.27.21.49-.38,1.19l.78.78c.13-.12.25-.26.39-.38a.54.54,0,0,1,.8,0,.56.56,0,0,1,0,.82l-.07.07a1.23,1.23,0,0,0-.51,1.15,2.1,2.1,0,0,1-2.43,2.18.57.57,0,0,0-.6.21,5,5,0,0,1-.4.4.55.55,0,0,1-.78,0,.53.53,0,0,1,0-.77c.12-.14.26-.27.41-.42l-.8-.79-.36.36a.59.59,0,0,1-.84,0,.55.55,0,0,1,0-.82c.11-.13.24-.24.37-.37l-.78-.78c-.36.27-.7.89-1.22.32s.09-.82.38-1.17l-.75-.75c-.78.59-1,.63-1.25.33s-.21-.5.37-1.2l-.75-.75c-.36.27-.69.88-1.21.34s.07-.84.37-1.19l-.77-.77c-.37.27-.66.87-1.22.35-.3-.28-.22-.51.37-1.19l-.77-.77c-.37.26-.65.87-1.21.35-.3-.28-.22-.48.37-1.18l-.77-.78c-.36.26-.66.89-1.19.35s.09-.82.37-1.18l-.79-.79-.27.27c-.39.38-.65.38-1.05,0l-1.62-1.63-.26-.25-1.07,1.07a.68.68,0,0,1-1,.16l-2.85-1.44c-.65-.32-.71-.69-.21-1.2l.21-.23-2.39-2.4-.39.39a.53.53,0,0,1-.8,0c-.54-.53-1.09-1.05-1.6-1.61-.13-.15-.12-.42-.18-.63l9.37-9.36,2.17,2.17c.14.5-.29.73-.53,1l2.39,2.39c.29-.31.56-.67,1.06-.51Zm-.54,10.66.27.27,8.16,8.16,3.58,3.58a1.06,1.06,0,0,0,1.35.27,1.1,1.1,0,0,0,.22-1.9l-11.76-11.76-.23-.21ZM286.83,416l2.35,2.35,6.37-6.36-2.35-2.36Zm10.23-3.78-7.65,7.65c.62.31,1.21.6,1.79.91a.37.37,0,0,0,.52-.08c.51-.54,1-1.08,1.58-1.61l4.59-4.58c.08-.08.17-.26.14-.34C297.72,413.53,297.39,412.89,297.06,412.23Zm-4.68-5-8,8,.77.77,8-8Zm3.24,14.4,3.18-3.18-1.57-1.56-3.17,3.17Z" transform="translate(-283 -405.59)"/></svg>