<svg width="9" height="9" id="Слой_1" data-name="Слой 1" xmlns="http://www.w3.org/2000/svg" viewBox="0 0 9.35 8.97"><defs><style>.cls-1{fill:#d8251d;}</style></defs><path class="cls-1" d="M294.93,424.61c.05-.21.09-.41.14-.62.13-.53.25-1.06.38-1.58a.66.66,0,0,0-.22-.7l-1.48-1.28-.14-.12a.64.64,0,0,1,.39-1.1l2.11-.18a.63.63,0,0,0,.57-.42l.79-1.9a.63.63,0,0,1,.46-.42.62.62,0,0,1,.75.4c.15.37.3.74.46,1.11l.33.79a.62.62,0,0,0,.57.43l1.29.11c.29,0,.58,0,.87.08a.59.59,0,0,1,.51.42.57.57,0,0,1-.15.65l-1.12,1-.52.45a.67.67,0,0,0-.22.7q.26,1,.48,2a.63.63,0,0,1-.54.81.68.68,0,0,1-.43-.11l-1.12-.68-.65-.38a.63.63,0,0,0-.74,0l-1.76,1.07a.63.63,0,0,1-.94-.26A1.49,1.49,0,0,1,294.93,424.61Z" transform="translate(-293.4 -416.27)"/></svg>