<svg id="Слой_1" data-name="Слой 1" xmlns="http://www.w3.org/2000/svg" viewBox="0 0 12.02 12.05"><defs><style>.cls-1{fill:#fff;}</style></defs><path class="cls-1" d="M297.17,420.8c-.4-.39-.76-.76-1.12-1.12l-3.75-3.76a.65.65,0,1,1,.89-.95l1.57,1.56,3.21,3.22.14.13a.64.64,0,0,1,.08-.14l4.74-4.75a.66.66,0,1,1,1,.86l-.11.11-4.69,4.7-.13.1.12.14,4.73,4.74a.66.66,0,0,1,.12.89.65.65,0,0,1-1,.07l-1.09-1.09-3.69-3.71-.1-.08-.11.11-4.74,4.75a.65.65,0,0,1-.8.15.65.65,0,0,1-.2-1,.57.57,0,0,1,.11-.11l4.7-4.71Z" transform="translate(-292.06 -414.76)"/></svg>