<svg id="Слой_1" data-name="Слой 1" xmlns="http://www.w3.org/2000/svg" viewBox="0 0 13.99 13.99"><defs><style>.cls-1{fill:#326ab2;}</style></defs><path class="cls-1" d="M303.9,415.09H302v-.87a.44.44,0,0,0-.44-.44.44.44,0,0,0-.43.44v.87h-2.63v-.87a.44.44,0,1,0-.87,0v.87H295v-.87a.44.44,0,0,0-.43-.44.44.44,0,0,0-.44.44v.87h-1.89a1.17,1.17,0,0,0-1.17,1.17v10.35a1.16,1.16,0,0,0,1.17,1.16H303.9a1.16,1.16,0,0,0,1.17-1.16V416.26A1.17,1.17,0,0,0,303.9,415.09Zm.3,11.52a.29.29,0,0,1-.3.29H292.25a.29.29,0,0,1-.3-.29V416.26a.29.29,0,0,1,.3-.29h1.89v.87a.44.44,0,0,0,.44.44.44.44,0,0,0,.43-.44V416h2.63v.87a.44.44,0,1,0,.87,0V416h2.63v.87a.44.44,0,0,0,.43.44.44.44,0,0,0,.44-.44V416h1.89a.29.29,0,0,1,.3.29Z" transform="translate(-291.08 -413.78)"/><rect class="cls-1" x="3.06" y="5.25" width="1.75" height="1.31"/><rect class="cls-1" x="3.06" y="7.43" width="1.75" height="1.31"/><rect class="cls-1" x="3.06" y="9.62" width="1.75" height="1.31"/><rect class="cls-1" x="6.12" y="9.62" width="1.75" height="1.31"/><rect class="cls-1" x="6.12" y="7.43" width="1.75" height="1.31"/><rect class="cls-1" x="6.12" y="5.25" width="1.75" height="1.31"/><rect class="cls-1" x="9.18" y="9.62" width="1.75" height="1.31"/><rect class="cls-1" x="9.18" y="7.43" width="1.75" height="1.31"/><rect class="cls-1" x="9.18" y="5.25" width="1.75" height="1.31"/></svg>