<svg id="Слой_1" data-name="Слой 1" xmlns="http://www.w3.org/2000/svg" viewBox="0 0 10.99 15.9"><defs><style>.cls-1{fill:#1a55a3;}</style></defs><path class="cls-1" d="M292.58,420.78v-6a1.83,1.83,0,0,1,1.91-1.92h7.21a1.84,1.84,0,0,1,1.87,1.88v12.17a1.83,1.83,0,0,1-1.85,1.86h-7.29a1.83,1.83,0,0,1-1.85-1.86Zm3.66-6.73h-1.72a.63.63,0,0,0-.72.71v12a.62.62,0,0,0,.71.7h7.09c.53,0,.75-.22.75-.74V414.65a.58.58,0,0,0-.53-.59c-.63,0-1.26,0-1.91,0a.37.37,0,0,1,0,.11,1.21,1.21,0,0,1-1.25,1.11h-1.18a1.21,1.21,0,0,1-.76-.26A1.23,1.23,0,0,1,296.24,414.05Z" transform="translate(-292.58 -412.82)"/></svg>