<svg id="Слой_1" data-name="Слой 1" xmlns="http://www.w3.org/2000/svg" viewBox="0 0 14.21 12.03"><defs><style>.cls-1{fill:#fff;}</style></defs><path class="cls-1" d="M303.54,414.76H292.61A1.64,1.64,0,0,0,291,416.4v8.75a1.63,1.63,0,0,0,1.64,1.64h10.93a1.63,1.63,0,0,0,1.64-1.64V416.4A1.64,1.64,0,0,0,303.54,414.76Zm-1.91,10.94L299.82,423a.47.47,0,0,1,.14-.14.55.55,0,0,1,.76.15l1.8,2.71Zm-1.31,0h-6.71l2.86-4.42a.58.58,0,0,1,.45-.25.55.55,0,0,1,.45.25Zm3.77-.55a.55.55,0,0,1-.3.48l-2.16-3.25a1.68,1.68,0,0,0-.46-.46,1.64,1.64,0,0,0-2,.13l-.91-1.38a1.65,1.65,0,0,0-1.37-.73,1.63,1.63,0,0,0-1.37.75l-3.19,4.94a.53.53,0,0,1-.3-.48V416.4a.55.55,0,0,1,.55-.54h10.93a.55.55,0,0,1,.55.54Z" transform="translate(-290.97 -414.76)"/><path class="cls-1" d="M300.81,417a1.64,1.64,0,1,0,1.64,1.64A1.63,1.63,0,0,0,300.81,417Zm0,2.19a.55.55,0,0,1,0-1.1.55.55,0,0,1,0,1.1Z" transform="translate(-290.97 -414.76)"/></svg>