<svg id="Слой_1" data-name="Слой 1" xmlns="http://www.w3.org/2000/svg" viewBox="0 0 19.01 19.01"><defs><style>.cls-1{fill:#d8251d;}</style></defs><path class="cls-1" d="M307.5,419.63a.85.85,0,0,0-.6-.77l-1.69-.61c-.08,0-.14-.11-.18-.18a.78.78,0,0,1,0-.89c.23-.41.41-.85.62-1.28a.85.85,0,0,0-.1-.95,10.18,10.18,0,0,0-1.64-1.64.86.86,0,0,0-1-.11c-.52.26-1,.5-1.56.73a.48.48,0,0,1-.24,0,.86.86,0,0,1-.68-.72c-.11-.43-.29-.85-.44-1.27a.84.84,0,0,0-.76-.59,9.4,9.4,0,0,0-2.31,0,.87.87,0,0,0-.79.62c-.18.53-.37,1-.56,1.57a.24.24,0,0,1-.2.21.15.15,0,0,0-.1,0,.78.78,0,0,1-.89,0c-.4-.21-.82-.38-1.23-.57a.78.78,0,0,0-.85.1,9.78,9.78,0,0,0-1.74,1.66.8.8,0,0,0-.11.92c.23.49.47,1,.69,1.49a.61.61,0,0,1,0,.3c0,.07-.07.13-.08.2-.05.33-.27.46-.56.55s-.87.3-1.31.46a.79.79,0,0,0-.57.74c0,.17-.05.34-.07.51v1.26c0,.18.05.37.07.55a.84.84,0,0,0,.6.79l1.56.56a.39.39,0,0,1,.18.18,1.08,1.08,0,0,1,.08.19.69.69,0,0,1,0,.81c-.21.39-.38.8-.57,1.2a.8.8,0,0,0,.1.92,9.43,9.43,0,0,0,1.7,1.7.79.79,0,0,0,.87.1c.51-.24,1-.48,1.55-.7a.47.47,0,0,1,.29,0,.92.92,0,0,1,.74.78c.08.34.26.66.35,1a1,1,0,0,0,1.07.79l.25,0h1.27l.56-.07a.85.85,0,0,0,.77-.58c.19-.54.38-1.07.56-1.61a.48.48,0,0,1,.26-.28.78.78,0,0,1,.84,0c.42.23.86.41,1.28.62a.83.83,0,0,0,.94-.11,10,10,0,0,0,1.66-1.66.83.83,0,0,0,.11-.95c-.24-.5-.47-1-.71-1.51a.5.5,0,0,1,0-.4.69.69,0,0,1,.53-.5c.49-.15,1-.34,1.43-.51a.87.87,0,0,0,.62-.79A10.09,10.09,0,0,0,307.5,419.63ZM306,421.19c0,.13,0,.19-.16.23l-1.56.55a.85.85,0,0,0-.56.59,8.1,8.1,0,0,1-.38.92.88.88,0,0,0,0,.85l.68,1.44a.22.22,0,0,1-.05.31c-.25.23-.49.47-.74.72l-1.56-.75a.9.9,0,0,0-.9,0,10,10,0,0,1-.95.4.86.86,0,0,0-.58.58c-.17.5-.35,1-.53,1.52a.17.17,0,0,1-.21.14h-.85c-.12,0-.16,0-.2-.14l-.52-1.48a.86.86,0,0,0-.61-.59c-.34-.12-.68-.26-1-.41a.88.88,0,0,0-.85,0c-.5.26-1,.51-1.55.77l-.69-.73a.21.21,0,0,1,0-.19c.21-.47.43-.93.65-1.39a.91.91,0,0,0,0-.89,7.24,7.24,0,0,1-.41-1,1,1,0,0,0-.6-.64l-1.53-.59c-.1,0-.15-.09-.14-.2,0-.28,0-.55,0-.83a.2.2,0,0,1,.16-.24l1.41-.5a.88.88,0,0,0,.58-.59c.13-.36.28-.72.44-1.06a.89.89,0,0,0,0-.84c-.23-.46-.44-.93-.66-1.4a.19.19,0,0,1,0-.26l.58-.58a.17.17,0,0,1,.24,0l1.41.71a.87.87,0,0,0,.83,0c.37-.17.74-.33,1.12-.47a.91.91,0,0,0,.6-.58c.17-.51.35-1,.52-1.51a.19.19,0,0,1,.21-.15h.85c.11,0,.17,0,.2.14.17.51.36,1,.52,1.52a.9.9,0,0,0,.61.6c.33.13.66.27,1,.42a.87.87,0,0,0,.8,0l1.49-.72a.18.18,0,0,1,.24,0c.19.2.38.39.58.58a.2.2,0,0,1,0,.26c-.24.48-.47,1-.71,1.47a.91.91,0,0,0,0,.85,7.69,7.69,0,0,1,.38.94.88.88,0,0,0,.55.56l1.66.63a.17.17,0,0,1,.14.19Q306,420.77,306,421.19Z" transform="translate(-288.56 -411.28)"/><path class="cls-1" d="M298.08,416.82a4,4,0,1,0,3.95,4A4,4,0,0,0,298.08,416.82Zm0,6.34a2.38,2.38,0,1,1,2.39-2.37A2.38,2.38,0,0,1,298.05,423.16Z" transform="translate(-288.56 -411.28)"/></svg>