<svg id="Слой_1" data-name="Слой 1" xmlns="http://www.w3.org/2000/svg" viewBox="0 0 12.01 11.51"><defs><style>.cls-1{fill:#fff;}</style></defs><path class="cls-1" d="M294,425.7l.18-.79.48-2a.83.83,0,0,0-.28-.9l-1.9-1.64-.18-.15a.82.82,0,0,1,.5-1.42l2.71-.22a.82.82,0,0,0,.73-.54l1-2.45a.82.82,0,0,1,.59-.54.8.8,0,0,1,1,.52c.2.48.39,1,.59,1.42l.42,1a.82.82,0,0,0,.73.55l1.66.14,1.12.1a.76.76,0,0,1,.66.54.74.74,0,0,1-.2.84l-1.43,1.25-.67.57a.84.84,0,0,0-.28.91c.21.86.41,1.72.62,2.57a.82.82,0,0,1-.7,1,.83.83,0,0,1-.55-.14l-1.45-.87-.82-.49a.83.83,0,0,0-.95,0l-2.27,1.38a.8.8,0,0,1-1.2-.34A1.68,1.68,0,0,1,294,425.7Z" transform="translate(-292.07 -414.99)"/></svg>