<svg width="13" height="13" id="Слой_1" data-name="Слой 1" xmlns="http://www.w3.org/2000/svg" viewBox="0 0 11.63 11.62"><defs><style>.cls-1{fill:#252525;}</style></defs><path class="cls-1" d="M303.89,420.78a5.82,5.82,0,1,1-5.82-5.82A5.81,5.81,0,0,1,303.89,420.78Zm-1.13,0a4.69,4.69,0,1,0-4.69,4.68A4.69,4.69,0,0,0,302.76,420.78Zm-5.23.79a.28.28,0,0,1-.11-.23v-3.85a.29.29,0,0,1,.28-.28h.75a.29.29,0,0,1,.28.28v3.33L300.3,422a.3.3,0,0,1,.06.4l-.44.61a.3.3,0,0,1-.4.06Z" transform="translate(-292.26 -414.96)"/></svg>