<svg width="13" height="13" id="Слой_1" data-name="Слой 1" xmlns="http://www.w3.org/2000/svg" viewBox="0 0 12.73 12.73"><defs><style>.cls-1{fill:#010101;}</style></defs><path class="cls-1" d="M304.22,426.05l-2.34-2.34a5.72,5.72,0,1,0-4.47,2.16,5.66,5.66,0,0,0,3.57-1.26l2.34,2.34a.63.63,0,0,0,.45.19.61.61,0,0,0,.45-.19A.63.63,0,0,0,304.22,426.05ZM293,420.14a4.46,4.46,0,1,1,7.62,3.14h0a4.45,4.45,0,0,1-7.59-3.16Z" transform="translate(-291.68 -414.41)"/><path class="cls-1" d="M299.32,419.5H298v-1.27a.64.64,0,0,0-.63-.64.64.64,0,0,0-.64.64v1.27H295.5a.64.64,0,0,0,0,1.28h1.27v1.27a.64.64,0,0,0,.64.64.64.64,0,0,0,.63-.64v-1.27h1.28a.64.64,0,0,0,0-1.28Z" transform="translate(-291.68 -414.41)"/></svg>